<svg width="59" height="59" viewBox="0 0 59 59" fill="none" xmlns="http://www.w3.org/2000/svg">
<circle cx="29.5" cy="29.5" r="29.5" fill="#040202"/>
<g clip-path="url(#clip0_1566_83)">
<path fill-rule="evenodd" clip-rule="evenodd" d="M14.625 34.8997C14.9702 34.8997 15.25 34.6199 15.25 34.2747V16.2251C15.25 15.136 16.136 14.25 17.2251 14.25H42.7749C43.8638 14.25 44.75 15.136 44.75 16.2251V18.7251C44.75 19.0703 45.0298 19.3501 45.375 19.3501C45.7202 19.3501 46 19.0703 46 18.7251V16.2251C46 14.4468 44.5532 13 42.7747 13H17.2251C15.4468 13 14 14.4468 14 16.2251V34.2747C14 34.6199 14.2798 34.8997 14.625 34.8997Z" fill="white"/>
<path fill-rule="evenodd" clip-rule="evenodd" d="M45.375 23.1001C45.0298 23.1001 44.75 23.3799 44.75 23.7251V41.7747C44.75 42.8638 43.8638 43.7498 42.7747 43.7498H17.2251C16.136 43.7498 15.25 42.8638 15.25 41.7747V39.2747C15.25 38.9297 14.9702 38.6497 14.625 38.6497C14.2798 38.6497 14 38.9297 14 39.2747V41.7747C14 43.5532 15.4468 44.9998 17.2251 44.9998H42.7749C44.5532 44.9998 46 43.5532 46 41.7747V23.7251C46 23.3799 45.7202 23.1001 45.375 23.1001Z" fill="white"/>
<path fill-rule="evenodd" clip-rule="evenodd" d="M37.6939 26.1602C37.7212 26.1602 37.7488 26.1582 37.7766 26.1545C37.9409 26.1326 38.0898 26.0464 38.1904 25.9146L41.7974 21.1924C42.0068 20.9182 41.9546 20.5261 41.6804 20.3167C40.0457 19.0659 38.2346 18.0918 36.2976 17.4211C36.2976 17.4211 36.2976 17.4211 36.2974 17.4211C36.2974 17.4209 36.2974 17.4209 36.2971 17.4209C34.2766 16.7212 32.158 16.3667 30 16.3667C27.842 16.3667 25.7234 16.7214 23.7029 17.4209C23.7026 17.4209 23.7026 17.4209 23.7026 17.4209C23.7024 17.4209 23.7024 17.4211 23.7024 17.4211C21.7654 18.0918 19.9543 19.0659 18.3193 20.3164C18.0454 20.5261 17.9932 20.9182 18.2024 21.1924L21.8096 25.9146C21.9102 26.0461 22.0591 26.1326 22.2236 26.1545C22.3877 26.1765 22.5542 26.1323 22.686 26.0315C24.8008 24.4136 27.3301 23.5586 30 23.5586C32.6699 23.5586 35.199 24.4136 37.314 26.0315C37.4236 26.1152 37.5574 26.1602 37.6939 26.1602ZM22.4319 24.6702L19.5815 20.9385C20.8057 20.0669 22.1274 19.356 23.5247 18.8171L24.2888 21.0242C24.3782 21.2827 24.6204 21.4448 24.8794 21.4448C24.9473 21.4448 25.0161 21.4338 25.084 21.4104C25.4102 21.2974 25.583 20.9414 25.47 20.6152L24.7061 18.4087C26.2173 17.9441 27.7827 17.6824 29.375 17.6279V19.9624C29.375 20.3076 29.6548 20.5874 30 20.5874C30.3452 20.5874 30.625 20.3076 30.625 19.9624V17.6282C32.2173 17.6824 33.7827 17.9441 35.2939 18.4089L34.53 20.6152C34.417 20.9414 34.5898 21.2974 34.916 21.4104C34.9836 21.4338 35.0527 21.4451 35.1206 21.4451C35.3794 21.4451 35.6216 21.2827 35.7112 21.0244L36.4753 18.8171C37.8723 19.356 39.1941 20.0671 40.4185 20.9385L37.5679 24.6702C35.3403 23.123 32.7371 22.3086 30 22.3086C27.2629 22.3086 24.6597 23.1228 22.4319 24.6702Z" fill="white"/>
<path fill-rule="evenodd" clip-rule="evenodd" d="M30 27.8225C29.7217 27.8225 29.477 28.0063 29.3996 28.2737L25.8425 40.5588C25.7878 40.7476 25.8252 40.9509 25.9431 41.1082C26.0613 41.2651 26.2463 41.3577 26.4426 41.3577H33.5571H33.5583C33.9036 41.3577 34.1833 41.0779 34.1833 40.7327C34.1833 40.6577 34.1702 40.5859 34.146 40.5193L30.6003 28.2737C30.5229 28.0063 30.2783 27.8225 30 27.8225ZM27.2744 40.1077L30 30.6946L32.7256 40.1077H27.2744Z" fill="white"/>
<path fill-rule="evenodd" clip-rule="evenodd" d="M14.625 37.3999C14.9692 37.3999 15.25 37.1189 15.25 36.7747C15.25 36.4304 14.9692 36.1497 14.625 36.1497C14.2808 36.1497 14 36.4304 14 36.7747C14 37.1189 14.2808 37.3999 14.625 37.3999Z" fill="white"/>
<path fill-rule="evenodd" clip-rule="evenodd" d="M45.375 20.6001C45.0308 20.6001 44.75 20.8809 44.75 21.2251C44.75 21.5693 45.0308 21.8501 45.375 21.8501C45.7192 21.8501 46 21.5693 46 21.2251C46 20.8809 45.7192 20.6001 45.375 20.6001Z" fill="white"/>
</g>
<defs>
<clipPath id="clip0_1566_83">
<rect width="32" height="32" fill="white" transform="translate(14 13)"/>
</clipPath>
</defs>
</svg>
