<svg width="59" height="59" viewBox="0 0 59 59" fill="none" xmlns="http://www.w3.org/2000/svg">
<circle cx="29.5" cy="29.5" r="29.5" fill="#040202"/>
<g clip-path="url(#clip0_1566_69)">
<path fill-rule="evenodd" clip-rule="evenodd" d="M42.1224 31.4255C41.0909 32.5051 39.6952 33.0998 38.1922 33.0998C36.785 33.0998 35.4528 32.5676 34.441 31.6011L34.3773 31.5403L34.6012 33.9563L35.1678 40.0649C35.1681 40.0654 35.1681 40.0659 35.1681 40.0664C35.444 43.0478 33.2438 45.6982 30.2626 45.9762C30.2616 45.9765 30.2609 45.9765 30.2599 45.9765C27.2775 46.2526 24.6252 44.0514 24.3486 41.0686C24.3486 41.0678 24.3483 41.0671 24.3483 41.0664L23.7819 34.9599L23.6535 33.5759L21.0744 37.9011C20.2958 39.2063 18.8623 40.017 17.333 40.017C16.5534 40.017 15.7876 39.8061 15.1184 39.4069C13.0613 38.1801 12.3855 35.5083 13.6123 33.4512L18.3415 25.5208C19.1201 24.2156 20.5537 23.4048 22.0829 23.4048C22.8625 23.4048 23.6281 23.6157 24.2975 24.0147C24.5832 24.1851 24.841 24.3841 25.0722 24.6048C25.4367 24.2825 25.8405 24.012 26.2741 23.7996L25.8095 23.3555C23.6432 21.2862 23.5644 17.8404 25.6337 15.6744C26.6652 14.5945 28.0609 13.9998 29.5639 13.9998C30.9711 13.9998 32.3034 14.5323 33.3151 15.4986L41.9466 23.7442C42.992 24.7429 43.5863 26.094 43.6195 27.5486C43.6527 29.0032 43.1212 30.3799 42.1224 31.4255ZM15.7587 38.3335C16.2343 38.6171 16.7788 38.767 17.333 38.767C18.4245 38.767 19.4467 38.1899 20.0009 37.2607L22.0004 33.9074C21.0749 33.6316 20.1071 33.199 19.1581 32.633C18.2092 32.0669 17.3684 31.4211 16.6857 30.738L14.686 34.0913C13.8122 35.5566 14.2934 37.4594 15.7587 38.3335ZM23.6574 25.0884C23.1816 24.8047 22.6374 24.6548 22.0829 24.6548C20.9916 24.6548 19.9692 25.2319 19.4152 26.1611L17.3496 29.625C17.9895 30.3137 18.8437 30.9902 19.7983 31.5596C20.7526 32.1286 21.7541 32.5588 22.6642 32.7944L24.7299 29.3303C25.3862 28.23 25.278 26.8826 24.5627 25.9097C24.5539 25.8989 24.5456 25.8882 24.5375 25.877C24.3041 25.5684 24.0094 25.2984 23.6574 25.0884ZM25.8427 25.5918C26.5917 26.9082 26.633 28.5796 25.8034 29.9707L24.7399 31.7541L24.9848 34.3945C25.5446 34.5112 26.1515 34.5893 26.797 34.6264C27.1415 34.6462 27.4049 34.9416 27.3852 35.2863C27.3654 35.6308 27.07 35.8923 26.7255 35.8745C26.1593 35.842 25.6174 35.7805 25.1051 35.6909L25.5932 40.9531C25.5932 40.9533 25.5932 40.9536 25.5932 40.954C25.8066 43.2499 27.8476 44.9443 30.1437 44.7319H30.1444C32.4408 44.519 34.1359 42.4775 33.9235 40.1813C33.9235 40.1809 33.9232 40.1806 33.9232 40.1804L33.4352 34.9182C32.9484 35.1006 32.4269 35.2605 31.8766 35.3965C31.5416 35.4792 31.2028 35.2749 31.12 34.9397C31.037 34.6047 31.2416 34.2658 31.5768 34.1831C32.2042 34.0281 32.7865 33.8393 33.3148 33.6218L32.9996 30.2244L27.2577 24.739C26.7345 24.9256 26.2548 25.2144 25.8427 25.5918ZM32.4518 16.4024C31.6737 15.6592 30.6481 15.2498 29.5639 15.2498C28.4057 15.2498 27.331 15.7073 26.5375 16.5376C24.9445 18.2056 25.005 20.8587 26.673 22.4517L30.5416 26.1475C31.6452 25.5291 32.8041 24.6091 33.8456 23.5188C34.8871 22.4285 35.753 21.2288 36.3202 20.0982L32.4518 16.4024ZM41.0831 24.648L37.2611 20.9969C36.6429 22.1348 35.7721 23.3118 34.7494 24.3821C33.7267 25.4526 32.5907 26.3767 31.4826 27.0461L35.3043 30.6973C36.0824 31.4404 37.108 31.8498 38.1922 31.8498C39.3504 31.8498 40.4251 31.3923 41.2186 30.562C41.9867 29.7578 42.3956 28.6978 42.37 27.5772C42.3443 26.4563 41.8873 25.416 41.0831 24.648Z" fill="white"/>
<path fill-rule="evenodd" clip-rule="evenodd" d="M29.2605 35.8265C28.9163 35.8265 28.6355 35.5457 28.6355 35.2015C28.6355 34.8572 28.9163 34.5765 29.2605 34.5765C29.6047 34.5765 29.8855 34.8572 29.8855 35.2015C29.8855 35.5457 29.6047 35.8265 29.2605 35.8265Z" fill="white"/>
</g>
<defs>
<clipPath id="clip0_1566_69">
<rect width="32" height="32" fill="white" transform="matrix(1 0 0 -1 13 46)"/>
</clipPath>
</defs>
</svg>
