<svg width="59" height="59" viewBox="0 0 59 59" fill="none" xmlns="http://www.w3.org/2000/svg">
<circle cx="29.5" cy="29.5" r="29.5" fill="#040202"/>
<path fill-rule="evenodd" clip-rule="evenodd" d="M40.1689 16.5356C39.8413 16.4274 39.4878 16.6054 39.3796 16.9333C39.2715 17.2609 39.4495 17.6144 39.7771 17.7226C42.7515 18.7043 44.75 21.4699 44.75 24.6042C44.75 27.5588 42.9834 30.1918 40.2493 31.3119C40.249 31.3122 40.2485 31.3124 40.248 31.3127C40.2476 31.3129 40.2471 31.3129 40.2466 31.3132C39.3774 31.6742 38.4805 31.8498 37.5044 31.8498C37.1594 31.8498 36.8794 32.1296 36.8794 32.4748C36.8794 32.82 37.1594 33.0998 37.5044 33.0998C38.1521 33.0998 38.7712 33.0334 39.3723 32.8984C38.8408 33.946 37.8491 35.5446 36.1689 37.1222C33.5454 39.5854 28.6777 42.4601 20.355 42.2267C19.9893 41.9508 18.9229 41.0671 17.8689 39.4352C16.6741 37.5856 15.25 34.3654 15.25 29.529C15.25 24.6711 15.645 21.4045 16.4934 19.2482C17.283 17.2416 18.479 16.1357 20.3716 15.6625C23.3105 14.9279 24.5034 15.308 24.9863 15.7563C25.4404 16.1777 25.5747 16.9479 25.386 18.0463C25.1274 19.548 24.6968 20.4596 24.0305 20.915C23.355 21.3766 22.314 21.4557 20.8481 21.1567C20.2756 21.0321 19.5664 20.8398 18.9961 20.654C18.668 20.5468 18.3152 20.7265 18.2083 21.0546C18.1013 21.3827 18.2808 21.7355 18.6089 21.8425C19.0637 21.9906 19.6013 22.1427 20.0994 22.2655C20.1411 23.8703 20.5237 28.7626 23.571 30.9902C22.8005 33.3 23.0613 34.998 23.0735 35.0737C23.123 35.3805 23.3884 35.5988 23.6897 35.5988C23.7229 35.5988 23.7563 35.5964 23.7903 35.5907C24.1311 35.5356 24.3625 35.2148 24.3074 34.8739C24.3047 34.8573 24.0508 33.2013 24.9075 30.9648C24.908 30.9635 24.9082 30.9621 24.9087 30.9609C24.9092 30.9594 24.9097 30.9584 24.9102 30.9572C25.6804 28.8661 27.0813 27.1032 29.0811 25.7052C29.2407 26.9338 29.6653 28.1125 30.3342 29.1628C30.4534 29.3498 30.6555 29.4521 30.8621 29.4521C30.9768 29.4521 31.093 29.4203 31.1973 29.3542C31.4883 29.1686 31.574 28.7824 31.3884 28.4911C30.6494 27.331 30.2588 25.987 30.2588 24.6042C30.2588 24.6037 30.2588 24.6034 30.2588 24.6032C30.2593 21.4694 32.2573 18.7043 35.2314 17.7226C35.5591 17.6144 35.7373 17.2609 35.6289 16.933C35.5208 16.6054 35.167 16.4274 34.8396 16.5356C31.4646 17.6496 29.1614 20.7221 29.0161 24.2494C26.7104 25.6947 25.042 27.549 24.0439 29.7731C21.8572 27.913 21.4399 24.1066 21.3625 22.5116C22.8105 22.7057 23.8945 22.5219 24.7356 21.9472C25.7131 21.279 26.2937 20.1413 26.6177 18.258C26.8828 16.717 26.6201 15.5671 25.8364 14.84C24.79 13.8688 22.9033 13.7411 20.0684 14.4499C17.7751 15.0231 16.2695 16.4023 15.3301 18.7904C14.4226 21.0973 14 24.5094 14 29.529C14 34.7118 15.5564 38.1818 16.8621 40.1799C18.2981 42.3774 19.7446 43.3305 19.8057 43.3698C19.9009 43.4318 20.0112 43.4665 20.1248 43.4701C20.5227 43.4836 20.9165 43.4902 21.3066 43.4902C24.741 43.4899 27.8652 42.975 30.6074 41.9555C33.0676 41.0409 35.2266 39.7214 37.0244 38.0334C39.5913 35.6235 40.6733 33.174 40.9839 32.3569C44.0405 30.9862 46 27.9736 46 24.6042C46 20.9294 43.6567 17.6869 40.1689 16.5356Z" fill="white"/>
<path fill-rule="evenodd" clip-rule="evenodd" d="M37.5044 17.3586C37.8486 17.3586 38.1294 17.0778 38.1294 16.7336C38.1294 16.3893 37.8486 16.1086 37.5044 16.1086C37.1602 16.1086 36.8794 16.3893 36.8794 16.7336C36.8794 17.0778 37.1602 17.3586 37.5044 17.3586Z" fill="white"/>
</svg>
